<?xml version="1.0" encoding="utf-8"?>
<!-- Generator: Adobe Illustrator 16.0.0, SVG Export Plug-In . SVG Version: 6.00 Build 0)  -->
<!DOCTYPE svg PUBLIC "-//W3C//DTD SVG 1.1//EN" "http://www.w3.org/Graphics/SVG/1.1/DTD/svg11.dtd">
<svg version="1.1" id="Layer_1" xmlns="http://www.w3.org/2000/svg" xmlns:xlink="http://www.w3.org/1999/xlink" x="0px" y="0px"
	 width="99.1px" height="113.68px" viewBox="0 0 99.1 113.68" enable-background="new 0 0 99.1 113.68" xml:space="preserve">
<path fill-rule="evenodd" clip-rule="evenodd" fill="#FFFFFF" d="M32.081,59.932c-1.132,6.594-2.526,12.724-3.146,18.931
	c-0.511,5.111-0.315,10.326-0.063,15.477c0.568,11.66-4.183,15.354-15.338,18.751c-7.021,2.138-11.877-1.638-12.242-9.642
	c-0.324-7.1-0.171-14.38,1.042-21.359c2.802-16.121,7.652-31.734,15.236-46.282c2.309-4.43,5.729-8.716,9.652-11.766
	c5.606-4.358,10.602-1.527,10.451,5.59c-0.136,6.406-1.064,12.795-1.615,18.883c4.848,0,9.541,0.043,14.23-0.043
	c0.744-0.014,1.662-0.424,2.189-0.958c5.085-5.148,5.588-11.628,4.469-18.176c-0.952-5.571-5.167-8.235-10.52-9.24
	c-10.388-1.95-20.151,0.049-29.55,4.546c-3.146,1.504-6.24,3.38-9.573,4.129c-2.096,0.471-5.488-0.118-6.645-1.56
	c-1.076-1.341-0.728-4.885,0.318-6.69C6.45,11.073,15.402,5.965,25.417,2.708c11.559-3.758,23.31-3.411,34.926-0.153
	C72.465,5.953,82.063,12.409,84.25,25.83c2.242,13.762-2.094,25.301-13.317,33.936c-6.952,5.35-6.997,5.326-4.636,14.041
	c1.043,3.849,2.018,7.73,3.338,11.487c1.814,5.162,3.146,5.525,7.332,1.815c3.983-3.53,7.498-7.599,11.564-11.018
	c1.85-1.555,5.234-3.508,6.67-2.787c1.98,0.996,3.676,4.282,3.855,6.71c0.232,3.144-0.482,6.754-1.949,9.557
	c-6.023,11.506-15.421,19.065-28.223,21.896c-10.897,2.408-18.974-2.338-21.506-13.181c-1.922-8.231-2.974-16.686-4.051-25.088
	c-0.464-3.618-1.576-6.135-5.042-7.829C36.171,64.335,34.594,62.199,32.081,59.932z"/>
</svg>
