<?xml version="1.0" standalone="no"?>
<!DOCTYPE svg PUBLIC "-//W3C//DTD SVG 20010904//EN"
 "http://www.w3.org/TR/2001/REC-SVG-20010904/DTD/svg10.dtd">
<svg version="1.0" xmlns="http://www.w3.org/2000/svg"
 width="920.000000pt" height="920.000000pt" viewBox="0 0 920.000000 920.000000"
 preserveAspectRatio="xMidYMid meet">
<metadata>
Created by potrace 1.11, written by Peter Selinger 2001-2013
</metadata>
<g transform="translate(0.000000,920.000000) scale(0.100000,-0.100000)"
fill="#000000" stroke="none">
<path d="M0 4600 l0 -4600 4600 0 4600 0 0 4600 0 4600 -4600 0 -4600 0 0
-4600z m4565 4010 c874 -46 1567 -269 2073 -667 92 -73 256 -240 327 -333 189
-247 311 -556 356 -905 18 -138 20 -194 16 -400 -8 -333 -49 -582 -142 -845
-42 -118 -157 -346 -232 -457 -262 -391 -686 -752 -1110 -948 -46 -21 -83 -41
-83 -45 0 -4 20 -60 44 -126 62 -169 95 -281 176 -594 160 -615 224 -824 310
-1007 78 -165 131 -223 202 -223 34 1 125 41 191 84 127 84 371 309 737 676
417 419 487 478 596 500 147 31 270 -55 328 -231 37 -112 48 -197 48 -364 0
-129 -3 -164 -25 -247 -94 -356 -361 -774 -699 -1094 -505 -477 -1151 -792
-1678 -820 -392 -20 -696 76 -919 290 -292 281 -420 675 -541 1661 -73 605
-137 1027 -183 1209 l-22 88 -91 33 c-239 85 -441 242 -532 413 -92 173 -88
429 8 574 105 158 334 267 627 299 190 20 371 -1 545 -64 l68 -24 69 71 c132
134 263 324 322 464 41 100 76 238 94 380 18 135 20 410 5 508 -60 380 -298
651 -680 772 -210 67 -411 87 -770 78 -351 -9 -610 -37 -803 -86 -276 -71
-545 -179 -935 -376 -427 -216 -516 -247 -707 -248 -133 0 -202 21 -266 84
-53 51 -69 93 -69 186 0 108 49 228 163 399 280 419 832 828 1452 1075 526
210 1085 294 1730 260z m-828 -1623 c66 -35 117 -113 150 -228 15 -55 18 -102
18 -324 -1 -293 -13 -459 -56 -720 -61 -375 -107 -581 -264 -1180 -119 -457
-217 -854 -272 -1110 l-37 -170 -6 -900 c-7 -935 -8 -951 -52 -1100 -47 -161
-119 -277 -241 -391 -92 -86 -163 -128 -397 -236 -346 -161 -419 -182 -640
-182 -128 -1 -152 2 -202 22 -211 85 -337 305 -395 689 -14 94 -18 183 -18
438 0 375 21 605 91 1019 146 867 519 2100 897 2971 178 410 384 793 516 958
122 153 318 325 440 386 163 82 372 108 468 58z"/>
</g>
</svg>
